{"title":"DJ Cinema - Streets Is Watching(DVD)(720pMkv)-desspratt-","uid":10117817,"size":2247355449,"categoryP":"video","categoryS":"music_videos","magnet":"?xt=urn:btih:02d7815c3a8440cf81ccef84fa842204305140ec&amp;dn=DJ+Cinema+-+Streets+Is+Watching%28DVD%29%28720pMkv%29-desspratt-+&amp;tr=udp%3A%2F%2Ftracker.openbittorrent.com%3A80&amp;tr=udp%3A%2F%2Fopen.demonii.com%3A1337&amp;tr=udp%3A%2F%2Ftracker.coppersurfer.tk%3A6969&amp;tr=udp%3A%2F%2Fexodus.desync.com%3A6969","seeders":1,"leechers":0,"uploader":"desspratt","files":-1,"time":1399625428,"description":"[URL=https://imageshack.com/i/nd3a62tj][IMG]http://imagizer.imageshack.us/v2/1024x768q90/841/3a62t.jpg[/IMG][/URL]\n[URL=https://imageshack.com/i/nhmy7mj][IMG]http://imagizer.imageshack.us/v2/1024x768q90/845/my7m.jpg[/IMG][/URL]\n\n______________________________________________________________________________________________________________________________________________________________________________________________________\n\n(2014)+DJ+Cinema+Presents+-+_Streets+Is+Watching_+(Video+Blends)-HD.mkv\nFormat                                   : Matroska\nFormat version                           : Version 2\nFile size                                : 2.09 GiB\nDuration                                 : 1h 20mn\nOverall bit rate                         : 3 732 Kbps\nWriting application                      : Lavf51.12.1\nWriting library                          : Lavf51.12.1\n\nVideo\nID                                       : 1\nFormat                                   : AVC\nFormat/Info                              : Advanced Video Codec\nFormat profile                           : &lt;a class=&quot;__cf_email__&quot; href=&quot;/cdn-cgi/l/email-protection&quot; data-cfemail=&quot;66240715030a0f0803262a554857&quot;&gt;[email&amp;#160;protected]&lt;/a&gt;&lt;script cf-hash='f9e31' type=&quot;text/javascript&quot;&gt;\n/* &lt;![CDATA[ */!function(){try{var t=&quot;currentScript&quot;in document?document.currentScript:function(){for(var t=document.getElementsByTagName(&quot;script&quot;),e=t.length;e--;)if(t[e].getAttribute(&quot;cf-hash&quot;))return t[e]}();if(t&amp;&amp;t.previousSibling){var e,r,n,i,c=t.previousSibling,a=c.getAttribute(&quot;data-cfemail&quot;);if(a){for(e=&quot;&quot;,r=parseInt(a.substr(0,2),16),n=2;a.length-n;n+=2)i=parseInt(a.substr(n,2),16)^r,e+=String.fromCharCode(i);e=document.createTextNode(e),c.parentNode.replaceChild(e,c)}}}catch(u){}}();/* ]]&gt; */&lt;/script&gt;\nFormat settings, CABAC                   : No\nFormat settings, ReFrames                : 2 frames\nFormat settings, GOP                     : M=1, N=12\nCodec ID                                 : V_MPEG4/ISO/AVC\nDuration                                 : 1h 20mn\nBit rate                                 : 3 530 Kbps\nWidth                                    : 1 280 pixels\nHeight                                   : 720 pixels\nDisplay aspect ratio                     : 16:9\nFrame rate mode                          : Constant\nFrame rate                               : 25.000 fps\nStandard                                 : PAL\nColor space                              : YUV\nChroma subsampling                       : 4:2:0\nBit depth                                : 8 bits\nScan type                                : Progressive\nBits/(Pixel*Frame)                       : 0.153\nStream size                              : 1.98 GiB (95%)\nDefault                                  : Yes\nForced                                   : No\nColor primaries                          : BT.601 PAL\nTransfer characteristics                 : BT.470 System B, BT.470 System G\nMatrix coefficients                      : BT.601\n\nAudio\nID                                       : 2\nFormat                                   : MPEG Audio\nFormat version                           : Version 1\nFormat profile                           : Layer 3\nMode                                     : Joint stereo\nMode extension                           : MS Stereo\nCodec ID                                 : A_MPEG/L3\nCodec ID/Hint                            : MP3\nDuration                                 : 1h 20mn\nBit rate mode                            : Constant\nBit rate                                 : 128 Kbps\nChannel(s)                               : 2 channels\nSampling rate                            : 44.1 KHz\nCompression mode                         : Lossy\nStream size                              : 73.5 MiB (3%)\nWriting library                          : LAME3.97\nDefault                                  : Yes\nForced                                   : No","torrent":{"xt":"urn:btih:02d7815c3a8440cf81ccef84fa842204305140ec","amp;dn":"DJ+Cinema+-+Streets+Is+Watching%28DVD%29%28720pMkv%29-desspratt-+","amp;tr":["udp%3A%2F%2Ftracker.openbittorrent.com%3A80","udp%3A%2F%2Fopen.demonii.com%3A1337","udp%3A%2F%2Ftracker.coppersurfer.tk%3A6969","udp%3A%2F%2Fexodus.desync.com%3A6969"],"infoHash":"02d7815c3a8440cf81ccef84fa842204305140ec","infoHashBuffer":{"type":"Buffer","data":[2,215,129,92,58,132,64,207,129,204,239,132,250,132,34,4,48,81,64,236]},"announce":[],"urlList":[]}}